<?xml version="1.0" standalone="no"?>
<!DOCTYPE svg PUBLIC "-//W3C//DTD SVG 20010904//EN"
 "http://www.w3.org/TR/2001/REC-SVG-20010904/DTD/svg10.dtd">
<svg version="1.0" xmlns="http://www.w3.org/2000/svg"
 width="128.000000pt" height="128.000000pt" viewBox="0 0 128.000000 128.000000"
 preserveAspectRatio="xMidYMid meet">

<g transform="translate(0.000000,128.000000) scale(0.100000,-0.100000)"
fill="#000000" stroke="none">
<path d="M542 970 c-164 -30 -344 -127 -489 -263 -29 -28 -53 -58 -53 -68 0
-22 109 -122 200 -183 152 -102 291 -149 440 -149 149 0 288 47 440 149 92 61
200 161 200 184 0 23 -108 123 -200 184 -178 120 -379 174 -538 146z m203 -94
c63 -29 102 -68 131 -131 79 -167 -50 -365 -236 -365 -141 0 -260 119 -260
260 0 141 119 260 260 260 37 0 72 -8 105 -24z"/>
<path d="M582 819 c-78 -23 -142 -128 -127 -208 31 -168 245 -213 340 -73 28
41 33 75 10 66 -27 -11 -86 17 -106 50 -24 40 -24 82 1 123 l19 32 -37 11
c-43 12 -56 12 -100 -1z"/>
</g>
</svg>
