<?xml version="1.0" standalone="no"?>
<!DOCTYPE svg PUBLIC "-//W3C//DTD SVG 20010904//EN"
 "http://www.w3.org/TR/2001/REC-SVG-20010904/DTD/svg10.dtd">
<svg version="1.0" xmlns="http://www.w3.org/2000/svg"
 width="60.000000pt" height="60.000000pt" viewBox="0 0 60.000000 60.000000"
 preserveAspectRatio="xMidYMid meet">

<g transform="translate(0.000000,60.000000) scale(0.100000,-0.100000)"
fill="#FFFFFF" stroke="none">
<path d="M272 548 c-15 -15 -16 -40 -1 -55 7 -7 -1 -31 -27 -79 -21 -38 -39
-71 -40 -72 -1 -2 -25 9 -53 24 -36 20 -51 36 -53 53 -4 32 -32 50 -56 35 -28
-18 -27 -51 2 -70 20 -12 26 -25 26 -53 0 -20 3 -53 6 -74 l7 -37 217 0 217 0
7 37 c3 21 6 54 6 74 0 28 6 41 26 53 29 19 30 52 2 70 -24 15 -52 -3 -56 -35
-2 -17 -17 -33 -53 -53 -28 -15 -52 -26 -53 -24 -1 1 -19 33 -39 71 -32 58
-35 70 -25 87 24 37 -29 79 -60 48z"/>
<path d="M80 152 c0 -50 9 -52 220 -52 211 0 220 2 220 52 l0 28 -220 0 -220
0 0 -28z"/>
</g>
</svg>
