<?xml version="1.0" standalone="no"?>
<!DOCTYPE svg PUBLIC "-//W3C//DTD SVG 20010904//EN"
 "http://www.w3.org/TR/2001/REC-SVG-20010904/DTD/svg10.dtd">
<svg version="1.0" xmlns="http://www.w3.org/2000/svg"
 width="128.000000pt" height="128.000000pt" viewBox="0 0 128.000000 128.000000"
 preserveAspectRatio="xMidYMid meet">

<g transform="translate(0.000000,128.000000) scale(0.100000,-0.100000)"
fill="#000000" stroke="none">
<path d="M500 1264 c-234 -50 -436 -254 -485 -489 -95 -454 306 -855 760 -760
238 50 440 252 490 490 95 456 -309 857 -765 759z m96 -291 c-7 -7 -140 7
-156 17 -27 17 61 152 124 191 l31 19 3 -111 c1 -62 1 -114 -2 -116z m178 156
c39 -46 82 -126 72 -136 -7 -8 -91 -22 -133 -22 l-33 -1 0 115 0 116 29 -15
c16 -9 45 -34 65 -57z m-381 -36 c-20 -38 -39 -72 -43 -76 -4 -4 -28 1 -55 11
l-47 19 43 35 c41 33 115 77 131 78 4 0 -9 -30 -29 -67z m510 46 c23 -12 62
-37 86 -57 l43 -35 -47 -19 c-27 -10 -51 -15 -55 -11 -13 15 -80 143 -74 143
2 0 24 -10 47 -21z m-632 -181 c54 -23 55 -24 47 -53 -4 -17 -13 -74 -20 -127
l-12 -98 -103 0 c-101 0 -103 1 -103 23 0 82 95 296 125 283 6 -3 35 -15 66
-28z m826 15 c45 -58 103 -209 103 -270 0 -22 -2 -23 -104 -23 l-103 0 -7 68
c-4 37 -13 95 -20 130 -9 43 -9 62 -2 62 6 0 34 11 61 24 62 30 55 29 72 9z
m-615 -68 c29 -3 68 -8 86 -11 l32 -5 0 -104 0 -105 -118 0 -118 0 8 81 c10
109 25 162 43 155 8 -3 38 -8 67 -11z m408 -24 c6 -22 14 -76 18 -120 l8 -81
-118 0 -118 0 0 105 0 104 33 5 c49 7 151 23 159 25 4 0 12 -17 18 -38z m-596
-348 c4 -38 13 -96 20 -130 9 -44 9 -63 2 -63 -6 0 -35 -11 -65 -25 -51 -24
-54 -24 -68 -8 -45 58 -103 209 -103 270 0 22 2 23 104 23 l103 0 7 -67z m306
-38 l0 -104 -32 -5 c-18 -3 -57 -8 -86 -11 -29 -3 -59 -8 -67 -11 -18 -7 -33
46 -43 155 l-8 81 118 0 118 0 0 -105z m308 24 c-10 -109 -25 -162 -43 -155
-8 3 -38 8 -67 11 -29 3 -68 8 -85 11 l-33 5 0 104 0 105 118 0 118 0 -8 -81z
m292 58 c0 -61 -58 -212 -103 -270 -14 -16 -17 -16 -68 8 -30 14 -59 25 -65
25 -7 0 -7 19 2 63 7 34 16 92 20 130 l7 67 103 0 c102 0 104 -1 104 -23z
m-600 -382 l0 -116 -29 15 c-53 28 -157 174 -137 193 9 9 75 21 124 22 l42 1
0 -115z m193 106 c26 -4 50 -11 53 -14 20 -19 -84 -165 -137 -193 l-29 -15 0
116 0 115 33 -1 c17 0 53 -4 80 -8z m-403 -109 c22 -39 37 -72 34 -72 -14 0
-95 47 -133 78 l-43 35 43 18 c24 10 48 17 52 16 4 -1 25 -35 47 -75z m613 53
l29 -12 -44 -35 c-41 -34 -127 -83 -133 -76 -1 2 16 36 37 76 43 78 40 77 111
47z"/>
</g>
</svg>
