<?xml version="1.0" standalone="no"?>
<!DOCTYPE svg PUBLIC "-//W3C//DTD SVG 20010904//EN"
 "http://www.w3.org/TR/2001/REC-SVG-20010904/DTD/svg10.dtd">
<svg version="1.0" xmlns="http://www.w3.org/2000/svg"
 width="100.000000pt" height="100.000000pt" viewBox="0 0 100.000000 100.000000"
 preserveAspectRatio="xMidYMid meet">

<g transform="translate(0.000000,100.000000) scale(0.100000,-0.100000)"
fill="#000000" stroke="none">
<path d="M82 860 c-15 -21 -35 -39 -44 -40 -15 0 -18 -10 -18 -70 l0 -69 108
-3 107 -3 3 -77 3 -78 -111 0 -110 0 0 -90 0 -90 487 2 c349 2 487 6 490 14 7
21 -117 192 -181 251 -135 123 -303 195 -489 210 -75 6 -79 7 -108 45 -26 32
-36 38 -70 38 -34 0 -43 -5 -67 -40z m424 -211 c38 -12 90 -32 115 -45 57 -28
123 -88 117 -106 -8 -22 -189 -22 -278 1 l-75 19 -3 76 -3 76 30 0 c16 0 60
-10 97 -21z"/>
<path d="M22 233 l3 -68 78 -3 77 -3 0 41 c0 33 3 40 20 40 17 0 20 -7 20 -40
l0 -40 80 0 80 0 0 40 c0 33 3 40 20 40 17 0 20 -7 20 -40 l0 -40 80 0 80 0 0
40 c0 33 3 40 20 40 17 0 20 -7 20 -40 l0 -40 74 0 c71 0 76 1 96 30 21 30 22
30 116 30 87 0 94 1 94 20 0 18 -7 20 -80 20 -79 0 -91 5 -68 28 9 9 -82 12
-410 12 l-423 0 3 -67z"/>
</g>
</svg>
