<?xml version="1.0" standalone="no"?>
<!DOCTYPE svg PUBLIC "-//W3C//DTD SVG 20010904//EN"
 "http://www.w3.org/TR/2001/REC-SVG-20010904/DTD/svg10.dtd">
<svg version="1.0" xmlns="http://www.w3.org/2000/svg"
 width="128.000000pt" height="128.000000pt" viewBox="0 0 128.000000 128.000000"
 preserveAspectRatio="xMidYMid meet">

<g transform="translate(0.000000,128.000000) scale(0.100000,-0.100000)"
fill="#000000" stroke="none">
<path d="M25 1095 c-33 -32 -33 -78 0 -110 l24 -25 591 0 591 0 24 25 c33 32
33 78 0 110 l-24 25 -591 0 -591 0 -24 -25z"/>
<path d="M25 695 c-33 -32 -33 -78 0 -110 l24 -25 591 0 591 0 24 25 c33 32
33 78 0 110 l-24 25 -591 0 -591 0 -24 -25z"/>
<path d="M25 295 c-16 -15 -25 -36 -25 -55 0 -19 9 -40 25 -55 l24 -25 591 0
591 0 24 25 c33 32 33 78 0 110 l-24 25 -591 0 -591 0 -24 -25z"/>
</g>
</svg>
