<?xml version="1.0" standalone="no"?>
<!DOCTYPE svg PUBLIC "-//W3C//DTD SVG 20010904//EN"
 "http://www.w3.org/TR/2001/REC-SVG-20010904/DTD/svg10.dtd">
<svg version="1.0" xmlns="http://www.w3.org/2000/svg"
 width="128.000000pt" height="128.000000pt" viewBox="0 0 128.000000 128.000000"
 preserveAspectRatio="xMidYMid meet">

<g transform="translate(0.000000,128.000000) scale(0.100000,-0.100000)"
fill="#FFFFFF" stroke="none">
<path d="M620 976 c-503 -231 -615 -286 -615 -302 0 -17 27 -24 280 -67 154
-27 282 -53 285 -57 3 -5 18 -119 34 -252 15 -134 30 -251 33 -261 16 -58 43
-11 343 592 166 332 299 610 296 618 -3 7 -13 13 -23 12 -10 0 -295 -127 -633
-283z"/>
</g>
</svg>
