<?xml version="1.0" standalone="no"?>
<!DOCTYPE svg PUBLIC "-//W3C//DTD SVG 20010904//EN" "http://www.w3.org/TR/2001/REC-SVG-20010904/DTD/svg10.dtd">
<svg version="1.0" xmlns="http://www.w3.org/2000/svg" width="64.000000pt" height="64.000000pt" viewBox="0 0 64.000000 64.000000" preserveAspectRatio="xMidYMid meet">

    <g transform="translate(0.000000,64.000000) scale(0.100000,-0.100000)" fill="#FFFFFF" stroke="none">
        <path d="M222 528 c-16 -16 -16 -71 0 -66 7 3 15 15 18 29 6 23 10 24 80 24
70 0 74 -1 80 -24 3 -14 11 -26 18 -29 16 -5 16 50 0 66 -16 16 -180 16 -196
0z" />
        <path d="M76 434 c-11 -29 -7 -189 6 -202 7 -7 41 -12 84 -12 68 0 73 2 76 23
3 21 8 22 78 22 70 0 75 -1 78 -22 3 -21 8 -23 76 -23 43 0 77 5 84 12 13 13
17 173 6 202 -5 14 -36 16 -244 16 -208 0 -239 -2 -244 -16z" />
        <path d="M260 215 l0 -35 60 0 60 0 0 35 0 35 -60 0 -60 0 0 -35z" />
        <path d="M70 163 c0 -27 5 -54 12 -61 17 -17 459 -17 476 0 7 7 12 34 12 61 0
41 -3 48 -16 43 -9 -3 -47 -6 -85 -6 -62 0 -69 -2 -69 -20 0 -18 -7 -20 -80
-20 -73 0 -80 2 -80 20 0 18 -7 20 -69 20 -38 0 -76 3 -85 6 -13 5 -16 -2 -16
-43z" />
    </g>
</svg>