<?xml version="1.0" standalone="no"?>
<!DOCTYPE svg PUBLIC "-//W3C//DTD SVG 20010904//EN"
 "http://www.w3.org/TR/2001/REC-SVG-20010904/DTD/svg10.dtd">
<svg version="1.0" xmlns="http://www.w3.org/2000/svg"
 width="128.000000pt" height="128.000000pt" viewBox="0 0 128.000000 128.000000"
 preserveAspectRatio="xMidYMid meet">

<g transform="translate(0.000000,128.000000) scale(0.100000,-0.100000)"
fill="#000000" stroke="none">
<path d="M71 1167 c-13 -6 -34 -25 -45 -40 -21 -28 -21 -37 -21 -487 0 -450 0
-459 21 -487 40 -54 28 -53 614 -53 586 0 574 -1 614 53 21 28 21 37 21 487 0
450 0 459 -21 487 -40 54 -28 53 -614 53 -413 0 -551 -3 -569 -13z m319 -282
l0 -96 -142 3 -143 3 -3 93 -3 92 146 0 145 0 0 -95z m398 20 c5 -122 14 -115
-147 -115 -117 0 -140 2 -145 16 -8 22 -8 159 1 168 4 3 70 5 147 4 l141 -3 3
-70z m390 -17 l-3 -93 -142 -3 -143 -3 0 96 0 95 145 0 146 0 -3 -92z m-793
-298 l0 -95 -120 -3 c-174 -4 -165 -9 -165 97 0 48 3 91 7 95 4 3 68 5 142 4
l136 -3 0 -95z m393 88 c7 -7 12 -42 12 -88 0 -46 -5 -81 -12 -88 -17 -17
-259 -17 -276 0 -7 7 -12 42 -12 88 0 46 5 81 12 88 17 17 259 17 276 0z m400
-85 c3 -111 13 -105 -163 -101 l-120 3 -3 84 c-2 46 -1 90 2 98 4 11 34 13
143 11 l138 -3 3 -92z m-788 -298 l0 -96 -142 3 -143 3 -3 79 c-2 44 -1 85 2
93 4 10 38 13 146 13 l140 0 0 -95z m395 0 l0 -90 -145 0 -145 0 -3 79 c-2 44
-1 85 2 93 5 11 35 13 148 11 l143 -3 0 -90z m390 0 l0 -90 -142 -3 -143 -3 0
96 0 96 143 -3 142 -3 0 -90z"/>
</g>
</svg>
