<?xml version="1.0" standalone="no"?>
<!DOCTYPE svg PUBLIC "-//W3C//DTD SVG 20010904//EN"
 "http://www.w3.org/TR/2001/REC-SVG-20010904/DTD/svg10.dtd">
<svg version="1.0" xmlns="http://www.w3.org/2000/svg"
 width="100.000000pt" height="100.000000pt" viewBox="0 0 100.000000 100.000000"
 preserveAspectRatio="xMidYMid meet">

<g transform="translate(0.000000,100.000000) scale(0.100000,-0.100000)"
fill="#000000" stroke="none">
<path d="M579 943 c-62 -59 -69 -73 -44 -93 12 -10 13 -16 4 -27 -10 -11 -14
-11 -29 2 -9 8 -21 15 -26 15 -5 0 -116 -107 -247 -238 -176 -176 -237 -243
-237 -261 0 -15 17 -40 45 -68 42 -43 45 -44 67 -29 36 26 85 20 119 -13 33
-34 37 -67 13 -113 l-16 -32 45 -43 c26 -25 56 -43 68 -43 17 0 91 68 261 237
131 131 238 243 238 249 0 6 -7 17 -15 24 -12 10 -13 16 -4 27 10 11 14 11 29
-2 9 -8 21 -15 27 -15 19 0 123 118 123 141 0 12 -19 40 -45 66 -42 43 -45 44
-67 29 -43 -31 -114 -10 -136 39 -16 34 -15 50 4 87 l16 32 -45 43 c-25 24
-55 43 -67 43 -12 0 -47 -24 -81 -57z m31 -168 c18 -20 21 -28 12 -37 -10 -10
-18 -6 -38 14 -15 14 -23 31 -20 37 11 17 20 14 46 -14z m82 -82 c20 -18 24
-43 6 -43 -16 0 -48 31 -48 47 0 18 20 16 42 -4z m88 -88 c18 -20 21 -28 12
-37 -10 -10 -18 -6 -38 14 -15 14 -23 31 -20 37 11 17 20 14 46 -14z"/>
</g>
</svg>
